<svg width="20" height="20" viewBox="0 0 20 20" fill="none" xmlns="http://www.w3.org/2000/svg">
<path d="M18.3333 8.74992L17.9379 5.58711C17.7829 4.3466 17.7053 3.72633 17.4134 3.25892C17.1562 2.8471 16.7846 2.51909 16.3441 2.31495C15.8441 2.08325 15.219 2.08325 13.9688 2.08325H6.03109C4.78091 2.08325 4.15582 2.08325 3.65581 2.31495C3.21527 2.51909 2.84371 2.8471 2.58651 3.25892C2.29457 3.72633 2.21704 4.34659 2.06198 5.58711L1.66663 8.74992M4.58329 12.0833H15.4166M4.58329 12.0833C2.97246 12.0833 1.66663 10.7774 1.66663 9.16659C1.66663 7.55575 2.97246 6.24992 4.58329 6.24992H15.4166C17.0275 6.24992 18.3333 7.55575 18.3333 9.16659C18.3333 10.7774 17.0275 12.0833 15.4166 12.0833M4.58329 12.0833C2.97246 12.0833 1.66663 13.3891 1.66663 14.9999C1.66663 16.6107 2.97246 17.9166 4.58329 17.9166H15.4166C17.0275 17.9166 18.3333 16.6107 18.3333 14.9999C18.3333 13.3891 17.0275 12.0833 15.4166 12.0833M4.99996 9.16659H5.00829M4.99996 14.9999H5.00829M9.99996 9.16659H15M9.99996 14.9999H15" stroke="#7E7BF5" stroke-width="1.5" stroke-linecap="round" stroke-linejoin="round"/>
</svg>
