<svg width="20" height="20" viewBox="0 0 20 20" fill="none" stroke="current" xmlns="http://www.w3.org/2000/svg">
<path d="M18.3334 8.74992L17.9381 5.58711C17.783 4.3466 17.7055 3.72633 17.4135 3.25892C17.1563 2.8471 16.7848 2.51909 16.3442 2.31495C15.8442 2.08325 15.2191 2.08325 13.969 2.08325H6.03121C4.78103 2.08325 4.15595 2.08325 3.65593 2.31495C3.21539 2.51909 2.84383 2.8471 2.58663 3.25892C2.2947 3.72633 2.21716 4.34659 2.0621 5.58711L1.66675 8.74992M4.58342 12.0833H15.4167M4.58342 12.0833C2.97258 12.0833 1.66675 10.7774 1.66675 9.16659C1.66675 7.55575 2.97258 6.24992 4.58341 6.24992H15.4167C17.0276 6.24992 18.3334 7.55575 18.3334 9.16659C18.3334 10.7774 17.0276 12.0833 15.4167 12.0833M4.58342 12.0833C2.97258 12.0833 1.66675 13.3891 1.66675 14.9999C1.66675 16.6107 2.97258 17.9166 4.58342 17.9166H15.4167C17.0276 17.9166 18.3334 16.6107 18.3334 14.9999C18.3334 13.3891 17.0276 12.0833 15.4167 12.0833M5.00008 9.16659H5.00842M5.00008 14.9999H5.00842M10.0001 9.16659H15.0001M10.0001 14.9999H15.0001" stroke-width="1.5" stroke-linecap="round" stroke-linejoin="round"/>
</svg>
