<svg width="20" height="20" viewBox="0 0 20 20" fill="none" xmlns="http://www.w3.org/2000/svg">
<g clip-path="url(#clip0_2017_3035)">
<path d="M11.2747 6.95996C10.7976 7.30004 10.2139 7.50008 9.58342 7.50008C7.97258 7.50008 6.66675 6.19425 6.66675 4.58341C6.66675 2.97258 7.97258 1.66675 9.58342 1.66675C10.6276 1.66675 11.5436 2.21543 12.0588 3.0402M5.00008 16.7394H7.17532C7.45894 16.7394 7.74082 16.7731 8.01576 16.8406L10.3142 17.3991C10.8129 17.5206 11.3324 17.5325 11.8363 17.4346L14.3776 16.9402C15.0489 16.8094 15.6664 16.488 16.1504 16.0172L17.9483 14.2682C18.4618 13.7695 18.4618 12.9604 17.9483 12.461C17.486 12.0113 16.754 11.9607 16.231 12.342L14.1356 13.8708C13.8355 14.0902 13.4703 14.2083 13.0948 14.2083H11.0713L12.3593 14.2082C13.0853 14.2082 13.6733 13.6362 13.6733 12.93V12.6744C13.6733 12.088 13.2631 11.5767 12.6785 11.435L10.6906 10.9515C10.3671 10.8731 10.0357 10.8334 9.7027 10.8334C8.89869 10.8334 7.44333 11.4991 7.44333 11.4991L5.00008 12.5208M16.6667 5.41675C16.6667 7.02758 15.3609 8.33342 13.7501 8.33342C12.1393 8.33342 10.8334 7.02758 10.8334 5.41675C10.8334 3.80592 12.1393 2.50008 13.7501 2.50008C15.3609 2.50008 16.6667 3.80592 16.6667 5.41675ZM1.66675 12.1667L1.66675 17.0001C1.66675 17.4668 1.66675 17.7001 1.75758 17.8784C1.83747 18.0352 1.96495 18.1627 2.12176 18.2426C2.30002 18.3334 2.53337 18.3334 3.00008 18.3334H3.66675C4.13346 18.3334 4.36681 18.3334 4.54507 18.2426C4.70188 18.1627 4.82936 18.0352 4.90925 17.8784C5.00008 17.7001 5.00008 17.4668 5.00008 17.0001V12.1667C5.00008 11.7 5.00008 11.4667 4.90925 11.2884C4.82936 11.1316 4.70188 11.0041 4.54507 10.9242C4.36681 10.8334 4.13346 10.8334 3.66675 10.8334L3.00008 10.8334C2.53337 10.8334 2.30002 10.8334 2.12176 10.9242C1.96495 11.0041 1.83747 11.1316 1.75758 11.2884C1.66675 11.4667 1.66675 11.7 1.66675 12.1667Z" stroke-width="1.5" stroke-linecap="round" stroke-linejoin="round"/>
</g>
<defs>
<clipPath id="clip0_2017_3035">
<rect width="20" height="20" fill="white"/>
</clipPath>
</defs>
</svg>
