<svg width="76" height="76" viewBox="0 0 76 76" fill="none" xmlns="http://www.w3.org/2000/svg">
<path d="M69.6665 33.2496L68.1642 21.2309C67.5749 16.517 67.2803 14.16 66.171 12.3838C65.1936 10.8189 63.7817 9.57246 62.1076 8.79673C60.2076 7.91626 57.8322 7.91626 53.0816 7.91626H22.9181C18.1675 7.91626 15.7921 7.91626 13.8921 8.79673C12.218 9.57246 10.8061 10.8189 9.82872 12.3838C8.71938 14.16 8.42476 16.5169 7.83551 21.2309L6.33318 33.2496M17.4165 45.9163H58.5832M17.4165 45.9163C11.2954 45.9163 6.33318 40.9541 6.33318 34.8329C6.33318 28.7118 11.2954 23.7496 17.4165 23.7496H58.5832C64.7043 23.7496 69.6665 28.7118 69.6665 34.8329C69.6665 40.9541 64.7043 45.9163 58.5832 45.9163M17.4165 45.9163C11.2954 45.9163 6.33318 50.8784 6.33318 56.9996C6.33318 63.1207 11.2954 68.0829 17.4165 68.0829H58.5832C64.7043 68.0829 69.6665 63.1207 69.6665 56.9996C69.6665 50.8784 64.7043 45.9163 58.5832 45.9163M18.9998 34.8329H19.0315M18.9998 56.9996H19.0315M37.9998 34.8329H56.9998M37.9998 56.9996H56.9998" stroke="#707078" stroke-width="4" stroke-linecap="round" stroke-linejoin="round"/>
</svg>
